<svg width="42" height="49" viewBox="0 0 42 49" fill="none" xmlns="http://www.w3.org/2000/svg"><path d="M40.511 38.316a26.255 26.255 0 01-2.596 4.669c-1.365 1.946-2.483 3.294-3.344 4.042-1.336 1.228-2.767 1.857-4.299 1.893-1.1 0-2.426-.313-3.97-.948-1.55-.632-2.974-.945-4.275-.945-1.366 0-2.83.313-4.396.945-1.569.635-2.832.965-3.798.998-1.47.063-2.934-.584-4.396-1.943-.933-.814-2.1-2.21-3.498-4.185-1.5-2.111-2.733-4.558-3.7-7.349C1.206 32.48.687 29.561.687 26.736c0-3.236.7-6.028 2.1-8.367 1.101-1.879 2.566-3.36 4.399-4.449a11.832 11.832 0 015.946-1.678c1.167 0 2.697.361 4.6 1.07 1.896.713 3.113 1.073 3.647 1.073.4 0 1.752-.422 4.046-1.263 2.168-.78 3.998-1.104 5.498-.976 4.063.327 7.115 1.93 9.145 4.815-3.633 2.201-5.43 5.285-5.395 9.241.033 3.082 1.15 5.646 3.348 7.682a11 11 0 003.344 2.194 36.117 36.117 0 01-.852 2.238zM31.194 1.648c0 2.415-.882 4.67-2.641 6.757-2.122 2.482-4.69 3.916-7.474 3.69a7.513 7.513 0 01-.056-.916c0-2.318 1.01-4.8 2.802-6.829.895-1.027 2.033-1.88 3.413-2.562 1.378-.671 2.68-1.043 3.905-1.106.036.323.051.646.051.966z" fill="currentColor"/></svg>