<svg width="50" height="49" viewBox="0 0 50 49" fill="none" xmlns="http://www.w3.org/2000/svg"><path fill-rule="evenodd" clip-rule="evenodd" d="M48.206 25a27.75 27.75 0 00-.44-4.939h-22.74v9.34H38.02c-.56 3.019-2.26 5.576-4.818 7.288v6.059h7.804c4.566-4.204 7.2-10.394 7.2-17.748z" fill="#4285F4"/><path fill-rule="evenodd" clip-rule="evenodd" d="M25.025 48.597c6.52 0 11.985-2.162 15.98-5.85l-7.803-6.058c-2.162 1.449-4.928 2.305-8.177 2.305-6.29 0-11.612-4.248-13.511-9.955H3.447v6.256c3.973 7.892 12.139 13.302 21.578 13.302z" fill="#34A853"/><path fill-rule="evenodd" clip-rule="evenodd" d="M11.514 29.04a14.515 14.515 0 01-.757-4.588c0-1.592.274-3.14.757-4.588v-6.256H3.447A24.136 24.136 0 00.88 24.452c0 3.896.933 7.584 2.568 10.844l8.067-6.256z" fill="#FBBC05"/><path fill-rule="evenodd" clip-rule="evenodd" d="M25.025 9.909c3.545 0 6.728 1.218 9.23 3.61l6.926-6.925C37 2.698 31.534.305 25.025.305c-9.44 0-17.605 5.411-21.578 13.303l8.067 6.256c1.899-5.708 7.222-9.955 13.511-9.955z" fill="#EA4335"/></svg>