<svg width="42" height="49" viewBox="0 0 42 49" fill="none" xmlns="http://www.w3.org/2000/svg">
<path d="M40.5115 38.3164C39.7812 40.0036 38.9167 41.5567 37.9151 42.9846C36.5499 44.9311 35.432 46.2785 34.5705 47.0267C33.2351 48.2549 31.8042 48.8839 30.272 48.9196C29.172 48.9196 27.8455 48.6066 26.3014 47.9717C24.7522 47.3397 23.3285 47.0267 22.0267 47.0267C20.6614 47.0267 19.1972 47.3397 17.631 47.9717C16.0625 48.6066 14.7988 48.9375 13.8327 48.9703C12.3634 49.0329 10.8989 48.3861 9.43701 47.0267C8.50397 46.2129 7.33694 44.8179 5.93887 42.8415C4.43887 40.731 3.20565 38.2836 2.23953 35.4935C1.20484 32.4798 0.686157 29.5614 0.686157 26.7361C0.686157 23.4997 1.38549 20.7083 2.78623 18.3692C3.88709 16.4903 5.35163 15.0082 7.18461 13.9201C9.01759 12.8321 10.9981 12.2776 13.131 12.2422C14.298 12.2422 15.8284 12.6031 17.7303 13.3126C19.6268 14.0245 20.8445 14.3854 21.3784 14.3854C21.7775 14.3854 23.1303 13.9633 25.4235 13.1218C27.5921 12.3414 29.4224 12.0183 30.9218 12.1456C34.9849 12.4735 38.0374 14.0751 40.0674 16.9607C36.4336 19.1624 34.6361 22.2462 34.6719 26.2022C34.7047 29.2836 35.8225 31.8478 38.0195 33.8838C39.0151 34.8287 40.127 35.5591 41.3641 36.0777C41.0958 36.8558 40.8126 37.601 40.5115 38.3164ZM31.1931 1.64789C31.1931 4.06308 30.3108 6.31813 28.552 8.40538C26.4296 10.8867 23.8624 12.3206 21.0785 12.0943C21.043 11.8046 21.0224 11.4996 21.0224 11.1791C21.0224 8.86057 22.0318 6.37924 23.8242 4.35041C24.7191 3.32318 25.8572 2.46905 27.2374 1.7877C28.6146 1.11651 29.9173 0.745326 31.1424 0.681763C31.1782 1.00464 31.1931 1.32753 31.1931 1.64786V1.64789Z" fill="currentColor"/>
</svg>
